<svg width="18" height="17" viewBox="0 0 18 17" fill="none" xmlns="http://www.w3.org/2000/svg">
<path d="M1.97531 15H8.78086C9.15124 15.575 9.62654 16.0781 10.179 16.4781C10.0802 16.4937 9.98148 16.5 9.87963 16.5H1.97531C0.885803 16.5 0 15.6031 0 14.5V2.5C0 1.39688 0.885803 0.5 1.97531 0.5H7.08333C7.60803 0.5 8.11111 0.709375 8.48148 1.08438L11.2747 3.9125C11.6451 4.2875 11.8519 4.79688 11.8519 5.32812V6.70625C11.321 6.85938 10.821 7.09062 10.3704 7.3875V5.49687H7.90124C7.35494 5.49687 6.91358 5.05 6.91358 4.49688V1.99688L1.97531 2C1.7037 2 1.48148 2.225 1.48148 2.5V14.5C1.48148 14.775 1.7037 15 1.97531 15ZM13.3333 7.5C14.5121 7.5 15.6425 7.97411 16.476 8.81802C17.3095 9.66193 17.7778 10.8065 17.7778 12C17.7778 13.1935 17.3095 14.3381 16.476 15.182C15.6425 16.0259 14.5121 16.5 13.3333 16.5C12.1546 16.5 11.0241 16.0259 10.1906 15.182C9.35714 14.3381 8.88889 13.1935 8.88889 12C8.88889 10.8065 9.35714 9.66193 10.1906 8.81802C11.0241 7.97411 12.1546 7.5 13.3333 7.5ZM13.8272 10C13.8272 9.725 13.6049 9.5 13.3333 9.5C13.0617 9.5 12.8395 9.725 12.8395 10V11.5H11.358C11.0864 11.5 10.8642 11.725 10.8642 12C10.8642 12.275 11.0864 12.5 11.358 12.5H12.8395V14C12.8395 14.275 13.0617 14.5 13.3333 14.5C13.6049 14.5 13.8272 14.275 13.8272 14V12.5H15.3086C15.5802 12.5 15.8025 12.275 15.8025 12C15.8025 11.725 15.5802 11.5 15.3086 11.5H13.8272V10Z" fill="#FE3323"/>
</svg>
