<svg width="15" height="17" viewBox="0 0 15 17" fill="none" xmlns="http://www.w3.org/2000/svg">
<path d="M5.62222 2H8.59682C8.68254 2 8.7619 2.04062 8.80952 2.1125L9.4127 3H4.80952L5.4127 2.1125C5.46032 2.04375 5.53968 2 5.6254 2H5.62222ZM11.2444 3L10.0794 1.27812C9.74921 0.79375 9.19365 0.5 8.6 0.5H5.62222C5.02857 0.5 4.47302 0.79375 4.14286 1.27812L2.97778 3H2.54286H1.01587H0.761905C0.339683 3 0 3.33437 0 3.75C0 4.16563 0.339683 4.5 0.761905 4.5H1.13016L1.89206 14.6469C1.97143 15.6906 2.85397 16.5 3.91746 16.5H10.3016C11.3651 16.5 12.2476 15.6906 12.327 14.6469L13.0921 4.5H13.4603C13.8825 4.5 14.2222 4.16563 14.2222 3.75C14.2222 3.33437 13.8825 3 13.4603 3H13.2063H11.6794H11.2444ZM11.5651 4.5L10.8095 14.5375C10.7905 14.8 10.5683 15 10.3016 15H3.91746C3.65079 15 3.43175 14.7969 3.40952 14.5375L2.65714 4.5H11.5651Z" fill="#FE3323"/>
</svg>
