<svg width="80" height="97" viewBox="0 0 80 97" fill="none" xmlns="http://www.w3.org/2000/svg">
<path d="M20.2468 91.2176C17.4983 91.4874 15.0516 89.4779 14.7821 86.7293L7.82238 15.7414C7.55298 12.9935 9.56188 10.5474 12.3097 10.2775L50.2762 6.54788L66.1293 14.484L72.6715 81.046C72.9416 83.7944 70.9324 86.2414 68.184 86.5112L20.2468 91.2176Z" fill="#FE3323"/>
<path opacity="0.8" d="M20.2468 91.2176C17.4983 91.4874 15.0516 89.4779 14.7821 86.7293L7.82238 15.7414C7.55298 12.9935 9.56188 10.5474 12.3097 10.2775L50.2762 6.54788L66.1293 14.484L72.6715 81.046C72.9416 83.7944 70.9324 86.2414 68.184 86.5112L20.2468 91.2176Z" fill="white"/>
<path d="M56.3319 18.5232L50.2759 6.54774L66.129 14.4838L56.3319 18.5232Z" fill="#263238"/>
<path opacity="0.4" d="M58.6108 31.03C58.4856 29.7661 57.8634 28.6038 56.8812 27.7986C55.8989 26.9934 54.6371 26.6114 53.3732 26.7366L22.0534 29.8179C20.7903 29.943 19.6285 30.5644 18.8233 31.5456C18.0181 32.5267 17.6353 33.7874 17.7591 35.0507C17.8846 36.3102 18.5031 37.469 19.4798 38.2742C20.4564 39.0794 21.7118 39.4657 22.9722 39.3488L54.2978 36.2714C55.5609 36.1464 56.7227 35.525 57.5279 34.5438C58.3331 33.5626 58.7159 32.3019 58.5922 31.0387L58.6108 31.03Z" fill="#FE3323"/>
<path opacity="0.4" d="M45.3279 41.465L23.4324 43.6023C22.1698 43.7286 21.0088 44.3503 20.2038 45.3312C19.3989 46.3121 19.0156 47.5721 19.138 48.835C19.2 49.4606 19.3847 50.0678 19.6814 50.6219C19.9782 51.176 20.3813 51.6662 20.8676 52.0645C21.354 52.4628 21.914 52.7613 22.5158 52.943C23.1176 53.1247 23.7492 53.1861 24.3747 53.1235L46.2646 50.9568C46.8902 50.8948 47.4973 50.7102 48.0515 50.4134C48.6056 50.1166 49.0958 49.7135 49.4941 49.2272C49.8924 48.7409 50.1909 48.1808 50.3726 47.579C50.5543 46.9773 50.6157 46.3456 50.5531 45.7201C50.4184 44.4655 49.7939 43.3148 48.8155 42.5181C47.8371 41.7213 46.5838 41.3429 45.3279 41.465Z" fill="#FE3323"/>
</svg>
