<svg id="Layer_1" data-name="Layer 1" xmlns="http://www.w3.org/2000/svg" viewBox="0 0 74.71 89.1"><defs><style>.cls-1,.cls-4{fill:#fe3323;}.cls-2,.cls-5{fill:#fff;}.cls-2,.cls-4{isolation:isolate;}.cls-2{opacity:0.8;}.cls-3{fill:#263238;}.cls-4{opacity:0.4;}</style></defs><path class="cls-1" d="M20.25,91.22a5,5,0,0,1-5.47-4.49l-7-71a5,5,0,0,1,4.49-5.46l38-3.73,15.85,7.93,6.54,66.57a5,5,0,0,1-4.49,5.46Z" transform="translate(-7.8 -6.55)"/><path class="cls-2" d="M20.25,91.22a5,5,0,0,1-5.47-4.49l-7-71a5,5,0,0,1,4.49-5.46l38-3.73,15.85,7.93,6.54,66.57a5,5,0,0,1-4.49,5.46Z" transform="translate(-7.8 -6.55)"/><path class="cls-3" d="M56.33,18.52l-6-12,15.85,7.93Z" transform="translate(-7.8 -6.55)"/><path class="cls-4" d="M58.61,31a4.79,4.79,0,0,0-5.24-4.29L22.05,29.82a4.75,4.75,0,0,0-3.23,1.73,4.82,4.82,0,0,0-1.06,3.5A4.8,4.8,0,0,0,23,39.35L54.3,36.27A4.79,4.79,0,0,0,58.59,31Z" transform="translate(-7.8 -6.55)"/><path class="cls-4" d="M45.33,41.47,23.43,43.6a4.79,4.79,0,0,0-4.29,5.23,4.78,4.78,0,0,0,5.23,4.29L46.26,51a4.85,4.85,0,0,0,1.79-.55,4.58,4.58,0,0,0,1.44-1.18,4.79,4.79,0,0,0,.88-1.65,4.67,4.67,0,0,0,.18-1.86,4.77,4.77,0,0,0-5.22-4.25Z" transform="translate(-7.8 -6.55)"/><path class="cls-1" d="M68.41,95.64a14.1,14.1,0,1,0-14.1-14.09A14.1,14.1,0,0,0,68.41,95.64Z" transform="translate(-7.8 -6.55)"/><path class="cls-5" d="M68.41,92.78A11.25,11.25,0,1,0,57.17,81.53,11.25,11.25,0,0,0,68.41,92.78Z" transform="translate(-7.8 -6.55)"/><path class="cls-1" d="M61.67,82.34a1.8,1.8,0,0,0,2,1.57l3.18-.38.37,3.18a1.79,1.79,0,0,0,3.56-.42l-.37-3.17,3.17-.38a1.79,1.79,0,0,0-.42-3.56L70,79.56l-.37-3.18a1.79,1.79,0,1,0-3.55.41L66.42,80l-3.18.37A1.78,1.78,0,0,0,61.67,82.34Z" transform="translate(-7.8 -6.55)"/></svg>