<svg width="44" height="44" viewBox="0 0 44 44" fill="none" xmlns="http://www.w3.org/2000/svg">
<rect width="44" height="44" rx="8" fill="#FE3323"/>
<g clip-path="url(#clip0_181_91)">
<path d="M33.5 22C33.5 27.5367 29.5866 32.1603 24.375 33.2544V25.9687H26.6711H27.1003L27.1653 25.5446L27.6973 22.0758L27.7857 21.5H27.2031H24.375V19.75C24.375 19.3476 24.4743 19.012 24.6721 18.7833C24.8581 18.5681 25.1939 18.375 25.8306 18.375H27.3438H27.8438V17.875V14.9219V14.5L27.4278 14.429L27.3438 14.9219L27.4278 14.429L27.4276 14.429L27.4273 14.4289L27.4262 14.4287L27.4226 14.4281L27.4096 14.4259L27.361 14.4181C27.319 14.4114 27.2582 14.4019 27.1814 14.3906C27.0279 14.368 26.8099 14.338 26.5502 14.308C26.0329 14.2483 25.3404 14.1875 24.6576 14.1875C23.186 14.1875 21.9142 14.6353 21.0097 15.5407C20.1047 16.4465 19.625 17.7527 19.625 19.3562V21.5H17.0781H16.5781V22V25.4687V25.9687H17.0781H19.625V33.2544C14.4134 32.1603 10.5 27.5367 10.5 22C10.5 15.6487 15.6487 10.5 22 10.5C28.3513 10.5 33.5 15.6487 33.5 22Z" fill="white" stroke="white"/>
</g>
<defs>
<clipPath id="clip0_181_91">
<rect width="24" height="24" fill="white" transform="translate(10 10)"/>
</clipPath>
</defs>
</svg>
