<svg width="44" height="44" viewBox="0 0 44 44" fill="none" xmlns="http://www.w3.org/2000/svg">
<rect width="44" height="44" rx="8" fill="#FE3323"/>
<g clip-path="url(#clip0_181_97)">
<mask id="path-3-inside-1_181_97" fill="white">
<path fill-rule="evenodd" clip-rule="evenodd" d="M11.7719 10H32.2234C33.2031 10 34 10.7734 34 11.7297V32.2703C34 33.2219 33.2031 34 32.2234 34H11.7719C10.7922 34 10 33.2219 10 32.2656V11.7297C10 10.7734 10.7922 10 11.7719 10ZM17.8795 13H26.1205C28.811 13 31 15.189 31 17.8795V26.1205C31 28.811 28.811 31 26.1205 31H17.8795C15.189 31 13 28.811 13 26.1205V17.8795C13 15.189 15.189 13 17.8795 13ZM26.1205 29.3735C27.9143 29.3735 29.3735 27.9143 29.3735 26.1205V17.8795C29.3735 16.0857 27.9143 14.6265 26.1205 14.6265H17.8795C16.0857 14.6265 14.6265 16.0857 14.6265 17.8795V26.1205C14.6265 27.9143 16.0857 29.3735 17.8795 29.3735H26.1205ZM21.9999 17.9316C19.7577 17.9316 17.9336 19.7557 17.9336 21.9979C17.9336 24.2401 19.7577 26.0642 21.9999 26.0642C24.242 26.0642 26.0661 24.2401 26.0661 21.9979C26.0661 19.7557 24.242 17.9316 21.9999 17.9316ZM21.9999 24.4377C20.6546 24.4377 19.5601 23.3432 19.5601 21.9979C19.5601 20.6526 20.6546 19.5581 21.9999 19.5581C23.3451 19.5581 24.4396 20.6526 24.4396 21.9979C24.4396 23.3432 23.3451 24.4377 21.9999 24.4377ZM26.6629 18.1499C27.1121 18.1499 27.4761 17.7859 27.4761 17.3367C27.4761 16.8875 27.1121 16.5234 26.6629 16.5234C26.2137 16.5234 25.8496 16.8875 25.8496 17.3367C25.8496 17.7859 26.2137 18.1499 26.6629 18.1499Z"/>
</mask>
<path fill-rule="evenodd" clip-rule="evenodd" d="M11.7719 10H32.2234C33.2031 10 34 10.7734 34 11.7297V32.2703C34 33.2219 33.2031 34 32.2234 34H11.7719C10.7922 34 10 33.2219 10 32.2656V11.7297C10 10.7734 10.7922 10 11.7719 10ZM17.8795 13H26.1205C28.811 13 31 15.189 31 17.8795V26.1205C31 28.811 28.811 31 26.1205 31H17.8795C15.189 31 13 28.811 13 26.1205V17.8795C13 15.189 15.189 13 17.8795 13ZM26.1205 29.3735C27.9143 29.3735 29.3735 27.9143 29.3735 26.1205V17.8795C29.3735 16.0857 27.9143 14.6265 26.1205 14.6265H17.8795C16.0857 14.6265 14.6265 16.0857 14.6265 17.8795V26.1205C14.6265 27.9143 16.0857 29.3735 17.8795 29.3735H26.1205ZM21.9999 17.9316C19.7577 17.9316 17.9336 19.7557 17.9336 21.9979C17.9336 24.2401 19.7577 26.0642 21.9999 26.0642C24.242 26.0642 26.0661 24.2401 26.0661 21.9979C26.0661 19.7557 24.242 17.9316 21.9999 17.9316ZM21.9999 24.4377C20.6546 24.4377 19.5601 23.3432 19.5601 21.9979C19.5601 20.6526 20.6546 19.5581 21.9999 19.5581C23.3451 19.5581 24.4396 20.6526 24.4396 21.9979C24.4396 23.3432 23.3451 24.4377 21.9999 24.4377ZM26.6629 18.1499C27.1121 18.1499 27.4761 17.7859 27.4761 17.3367C27.4761 16.8875 27.1121 16.5234 26.6629 16.5234C26.2137 16.5234 25.8496 16.8875 25.8496 17.3367C25.8496 17.7859 26.2137 18.1499 26.6629 18.1499Z" fill="white"/>
<path d="M13.5578 30.4516H13.0578V30.9516H13.5578V30.4516ZM30.4516 30.4516V30.9516H30.9516V30.4516H30.4516ZM15.6333 29.9516H13.5578V30.9516H15.6333V29.9516ZM14.0578 30.4516V28.3846H13.0578V30.4516H14.0578ZM15.3391 16.9344C15.1613 16.9344 14.9916 16.9052 14.8339 16.8518L14.5135 17.7991C14.7732 17.887 15.051 17.9344 15.3391 17.9344V16.9344ZM13.8479 15.8552C13.7987 15.7036 13.7719 15.5414 13.7719 15.3719H12.7719C12.7719 15.6476 12.8156 15.9141 12.8969 16.1643L13.8479 15.8552ZM13.7719 15.3719C13.7719 14.5097 14.4707 13.8094 15.3391 13.8094V12.8094C13.9199 12.8094 12.7719 13.9559 12.7719 15.3719H13.7719ZM30.4516 29.9516H28.3667V30.9516H30.4516V29.9516ZM27.3937 29.2807V24.8828H26.3937V29.2807H27.3937ZM27.3937 24.8828C27.3937 24.3853 27.3921 23.7723 27.2743 23.2121C27.1561 22.6497 26.904 22.057 26.3372 21.6885L25.7922 22.5269C26.0408 22.6886 26.2032 22.9779 26.2957 23.4178C26.3886 23.8599 26.3937 24.3694 26.3937 24.8828H27.3937ZM24.3301 21.418C23.6165 21.5756 23.1371 21.98 22.8422 22.5175C22.5606 23.031 22.4588 23.6433 22.4246 24.2267L23.4228 24.2853C23.4538 23.7569 23.5429 23.3194 23.719 22.9984C23.8818 22.7016 24.1269 22.4869 24.5458 22.3944L24.3301 21.418ZM22.4094 25.9616V29.3735H23.4094V25.9616H22.4094ZM19.8563 29.3735V25.0852H18.8563V29.3735H19.8563ZM26.1813 19.2094C27.6277 19.2094 28.4746 19.613 28.9965 20.2121L29.7505 19.5551C28.9839 18.6754 27.8216 18.2094 26.1813 18.2094V19.2094ZM29.9516 28.3667V30.4516H30.9516V28.3667H29.9516ZM32.2234 9H11.7719V11H32.2234V9ZM35 11.7297C35 10.1952 33.7291 9 32.2234 9V11C32.6771 11 33 11.3517 33 11.7297H35ZM35 32.2703V11.7297H33V32.2703H35ZM32.2234 35C33.7309 35 35 33.7984 35 32.2703H33C33 32.6454 32.6753 33 32.2234 33V35ZM11.7719 35H32.2234V33H11.7719V35ZM9 32.2656C9 33.7932 10.2592 35 11.7719 35V33C11.3252 33 11 32.6505 11 32.2656H9ZM9 11.7297V32.2656H11V11.7297H9ZM11.7719 9C10.2627 9 9 10.1986 9 11.7297H11C11 11.3483 11.3217 11 11.7719 11V9ZM26.1205 12H17.8795V14H26.1205V12ZM32 17.8795C32 14.6367 29.3633 12 26.1205 12V14C28.2587 14 30 15.7413 30 17.8795H32ZM32 26.1205V17.8795H30V26.1205H32ZM26.1205 32C29.3633 32 32 29.3633 32 26.1205H30C30 28.2587 28.2587 30 26.1205 30V32ZM17.8795 32H26.1205V30H17.8795V32ZM12 26.1205C12 29.3633 14.6367 32 17.8795 32V30C15.7413 30 14 28.2587 14 26.1205H12ZM12 17.8795V26.1205H14V17.8795H12ZM17.8795 12C14.6367 12 12 14.6367 12 17.8795H14C14 15.7413 15.7413 14 17.8795 14V12ZM28.3735 26.1205C28.3735 27.362 27.362 28.3735 26.1205 28.3735V30.3735C28.4666 30.3735 30.3735 28.4666 30.3735 26.1205H28.3735ZM28.3735 17.8795V26.1205H30.3735V17.8795H28.3735ZM26.1205 15.6265C27.362 15.6265 28.3735 16.638 28.3735 17.8795H30.3735C30.3735 15.5334 28.4666 13.6265 26.1205 13.6265V15.6265ZM17.8795 15.6265H26.1205V13.6265H17.8795V15.6265ZM15.6265 17.8795C15.6265 16.638 16.638 15.6265 17.8795 15.6265V13.6265C15.5334 13.6265 13.6265 15.5334 13.6265 17.8795H15.6265ZM15.6265 26.1205V17.8795H13.6265V26.1205H15.6265ZM17.8795 28.3735C16.638 28.3735 15.6265 27.362 15.6265 26.1205H13.6265C13.6265 28.4666 15.5334 30.3735 17.8795 30.3735V28.3735ZM26.1205 28.3735H17.8795V30.3735H26.1205V28.3735ZM18.9336 21.9979C18.9336 20.308 20.31 18.9316 21.9999 18.9316V16.9316C19.2054 16.9316 16.9336 19.2035 16.9336 21.9979H18.9336ZM21.9999 25.0642C20.31 25.0642 18.9336 23.6878 18.9336 21.9979H16.9336C16.9336 24.7924 19.2054 27.0642 21.9999 27.0642V25.0642ZM25.0661 21.9979C25.0661 23.6878 23.6897 25.0642 21.9999 25.0642V27.0642C24.7943 27.0642 27.0661 24.7924 27.0661 21.9979H25.0661ZM21.9999 18.9316C23.6897 18.9316 25.0661 20.308 25.0661 21.9979H27.0661C27.0661 19.2035 24.7943 16.9316 21.9999 16.9316V18.9316ZM18.5601 21.9979C18.5601 23.8954 20.1023 25.4377 21.9999 25.4377V23.4377C21.2069 23.4377 20.5601 22.7909 20.5601 21.9979H18.5601ZM21.9999 18.5581C20.1023 18.5581 18.5601 20.1004 18.5601 21.9979H20.5601C20.5601 21.2049 21.2069 20.5581 21.9999 20.5581V18.5581ZM25.4396 21.9979C25.4396 20.1004 23.8974 18.5581 21.9999 18.5581V20.5581C22.7928 20.5581 23.4396 21.2049 23.4396 21.9979H25.4396ZM21.9999 25.4377C23.8974 25.4377 25.4396 23.8954 25.4396 21.9979H23.4396C23.4396 22.7909 22.7928 23.4377 21.9999 23.4377V25.4377ZM26.4761 17.3367C26.4761 17.2336 26.5598 17.1499 26.6629 17.1499V19.1499C27.6643 19.1499 28.4761 18.3382 28.4761 17.3367H26.4761ZM26.6629 17.5234C26.5598 17.5234 26.4761 17.4398 26.4761 17.3367H28.4761C28.4761 16.3352 27.6643 15.5234 26.6629 15.5234V17.5234ZM26.8496 17.3367C26.8496 17.4398 26.766 17.5234 26.6629 17.5234V15.5234C25.6614 15.5234 24.8496 16.3352 24.8496 17.3367H26.8496ZM26.6629 17.1499C26.766 17.1499 26.8496 17.2336 26.8496 17.3367H24.8496C24.8496 18.3382 25.6614 19.1499 26.6629 19.1499V17.1499Z" fill="white" mask="url(#path-3-inside-1_181_97)"/>
</g>
<defs>
<clipPath id="clip0_181_97">
<rect x="10" y="10" width="24" height="24" rx="7" fill="white"/>
</clipPath>
</defs>
</svg>
