<svg width="55" height="55" viewBox="0 0 55 55" fill="none" xmlns="http://www.w3.org/2000/svg">
<g clip-path="url(#clip0_52_640)">
<rect width="55" height="55" rx="8" fill="#FE3323"/>
<g filter="url(#filter0_d_52_640)">
<path fill-rule="evenodd" clip-rule="evenodd" d="M38.1857 22.9124L41.1471 19.9214L34.752 13.4616C34.1426 12.8462 33.1453 12.8462 32.5353 13.4616L27.9719 18.0707L30.9207 21.0757L32.5353 19.445C33.1453 18.8289 34.1432 18.8296 34.7525 19.445L38.1857 22.9124Z" fill="white"/>
<path d="M38.1854 32.0873L41.1474 35.079L34.7521 41.5382C34.1426 42.1538 33.1448 42.1539 32.5352 41.5382L26.1399 35.079L29.1019 32.0873L32.5352 35.555C33.1448 36.1706 34.1426 36.1706 34.7521 35.555L38.1854 32.0873Z" fill="white"/>
<path d="M41.1475 19.9212L47.5427 26.3805C48.1522 26.9961 48.1526 28.0035 47.5427 28.6196L41.1473 35.0789L38.1854 32.0872L41.6187 28.6196C42.2286 28.0035 42.2286 26.9957 41.6192 26.3801L38.1858 22.9124L41.1475 19.9212Z" fill="white"/>
<path fill-rule="evenodd" clip-rule="evenodd" d="M26.9701 25.0663L24.0212 22.0614L19.7447 26.3802C19.1352 26.9957 19.1352 28.0036 19.7447 28.6197L24.538 33.4611L26.1397 35.0788L27.5001 33.7056L29.1018 32.0871L27.5001 30.4694L25.6687 28.6197C25.0593 28.0036 25.0593 26.9957 25.6687 26.3802L26.9701 25.0663Z" fill="white"/>
<path d="M38.1854 32.0873L41.1474 35.079L34.7521 41.5382C34.1426 42.1538 33.1448 42.1539 32.5352 41.5382L26.1399 35.079L29.1019 32.0873L32.5352 35.555C33.1448 36.1706 34.1426 36.1706 34.7521 35.555L38.1854 32.0873Z" fill="white"/>
<path d="M13.8524 19.921L16.8145 22.9127L13.3811 26.3803C12.7716 26.9959 12.7717 28.0038 13.3811 28.6195L16.8145 32.087L13.8524 35.0787L7.45717 28.6195C6.84764 28.0038 6.84758 26.9959 7.45717 26.3802L13.8524 19.921Z" fill="white"/>
<path d="M22.4647 13.4618L28.86 19.9211L25.8983 22.9124L22.4651 19.4447C21.8555 18.8292 20.8576 18.829 20.2477 19.4451L16.8144 22.9128L13.8524 19.9211L20.2477 13.4618C20.8576 12.8458 21.8552 12.8463 22.4647 13.4618Z" fill="white"/>
<path fill-rule="evenodd" clip-rule="evenodd" d="M26.9345 37.0237L23.9886 34.0157L22.4647 35.555C21.8552 36.1706 20.8574 36.1706 20.2479 35.555L16.8145 32.0873L13.8525 35.079L20.2478 41.5382C20.8574 42.1539 21.8552 42.1538 22.4647 41.5382L26.9345 37.0237Z" fill="white"/>
<path fill-rule="evenodd" clip-rule="evenodd" d="M35.2553 26.3803L28.86 19.921L25.8984 22.9122L29.3317 26.3799C29.9412 26.9955 29.9412 28.0033 29.3313 28.6194L27.9394 30.0252L30.8852 33.0332L35.2553 28.6194C35.8652 28.0034 35.8648 26.996 35.2553 26.3803Z" fill="white"/>
<path d="M25.6687 28.6199C25.4643 28.4132 25.3287 28.1623 25.2614 27.8971H19.3374C19.4047 28.1623 19.5401 28.4132 19.7446 28.6199L24.538 33.4613L26.1397 35.079L27.4999 33.7058L29.1017 32.0873L27.4999 30.4696L25.6687 28.6199Z" fill="white"/>
<path d="M38.1854 32.0872L41.1474 35.0789L34.7521 41.5382C34.1425 42.1538 33.1447 42.1539 32.5351 41.5382L26.1399 35.0789L29.1019 32.0872L32.5351 35.5549C33.1447 36.1705 34.1426 36.1705 34.7521 35.5549L38.1854 32.0872Z" fill="white"/>
</g>
</g>
<defs>
<filter id="filter0_d_52_640" x="-23" y="-17" width="101" height="89" filterUnits="userSpaceOnUse" color-interpolation-filters="sRGB">
<feFlood flood-opacity="0" result="BackgroundImageFix"/>
<feColorMatrix in="SourceAlpha" type="matrix" values="0 0 0 0 0 0 0 0 0 0 0 0 0 0 0 0 0 0 127 0" result="hardAlpha"/>
<feOffset/>
<feGaussianBlur stdDeviation="15"/>
<feComposite in2="hardAlpha" operator="out"/>
<feColorMatrix type="matrix" values="0 0 0 0 0 0 0 0 0 0 0 0 0 0 0 0 0 0 0.3 0"/>
<feBlend mode="normal" in2="BackgroundImageFix" result="effect1_dropShadow_52_640"/>
<feBlend mode="normal" in="SourceGraphic" in2="effect1_dropShadow_52_640" result="shape"/>
</filter>
<clipPath id="clip0_52_640">
<rect width="55" height="55" rx="8" fill="white"/>
</clipPath>
</defs>
</svg>
