<svg width="44" height="44" viewBox="0 0 44 44" fill="none" xmlns="http://www.w3.org/2000/svg">
<rect width="44" height="44" rx="8" fill="#FE3323"/>
<g clip-path="url(#clip0_181_105)">
<mask id="path-3-inside-1_181_105" fill="white">
<path fill-rule="evenodd" clip-rule="evenodd" d="M11.7719 10H32.2234C33.2031 10 34 10.7734 34 11.7297V32.2703C34 33.2219 33.2031 34 32.2234 34H11.7719C10.7922 34 10 33.2219 10 32.2656V11.7297C10 10.7734 10.7922 10 11.7719 10ZM16.25 20.0793C16.25 17.3096 18.358 14.7695 22.3218 14.7695C25.5118 14.7695 27.9905 16.9363 28.0004 19.8325C28.0004 22.8535 25.9991 25.2879 23.2294 25.2879C22.2983 25.2879 21.4242 24.8296 21.1214 24.2827C21.1214 24.2827 20.6613 25.9577 20.5492 26.3708C20.2409 27.5043 19.1417 29.0727 19.0522 29.1902C18.9962 29.2634 18.8959 29.2354 18.8787 29.1459C18.8507 28.9841 18.5261 27.103 18.8118 25.9414C18.9808 25.2553 19.8902 21.5817 19.8902 21.5817C19.8902 21.5817 19.6154 21.0574 19.6154 20.2809C19.6154 19.0588 20.3612 18.1485 21.2805 18.1485C22.0597 18.1485 22.4411 18.7071 22.4411 19.3824C22.4411 19.86 22.2378 20.4863 22.0234 21.147C21.8998 21.528 21.7724 21.9203 21.6782 22.3021C21.4649 23.1789 22.1374 23.8876 23.0404 23.8876C24.6721 23.8876 25.9277 22.2461 25.9277 19.8732C25.9277 17.7733 24.3467 16.3053 22.0868 16.3053C19.4735 16.3053 17.9377 18.181 17.9377 20.1128C17.9377 20.8667 18.2405 21.6703 18.622 22.1114C18.6943 22.1955 18.706 22.2732 18.6834 22.3627C18.6541 22.4744 18.6124 22.6361 18.5707 22.7979C18.5081 23.0406 18.4455 23.2833 18.4249 23.357C18.386 23.5188 18.2911 23.5523 18.1167 23.4736C16.9677 22.9656 16.25 21.3638 16.25 20.0793Z"/>
</mask>
<path fill-rule="evenodd" clip-rule="evenodd" d="M11.7719 10H32.2234C33.2031 10 34 10.7734 34 11.7297V32.2703C34 33.2219 33.2031 34 32.2234 34H11.7719C10.7922 34 10 33.2219 10 32.2656V11.7297C10 10.7734 10.7922 10 11.7719 10ZM16.25 20.0793C16.25 17.3096 18.358 14.7695 22.3218 14.7695C25.5118 14.7695 27.9905 16.9363 28.0004 19.8325C28.0004 22.8535 25.9991 25.2879 23.2294 25.2879C22.2983 25.2879 21.4242 24.8296 21.1214 24.2827C21.1214 24.2827 20.6613 25.9577 20.5492 26.3708C20.2409 27.5043 19.1417 29.0727 19.0522 29.1902C18.9962 29.2634 18.8959 29.2354 18.8787 29.1459C18.8507 28.9841 18.5261 27.103 18.8118 25.9414C18.9808 25.2553 19.8902 21.5817 19.8902 21.5817C19.8902 21.5817 19.6154 21.0574 19.6154 20.2809C19.6154 19.0588 20.3612 18.1485 21.2805 18.1485C22.0597 18.1485 22.4411 18.7071 22.4411 19.3824C22.4411 19.86 22.2378 20.4863 22.0234 21.147C21.8998 21.528 21.7724 21.9203 21.6782 22.3021C21.4649 23.1789 22.1374 23.8876 23.0404 23.8876C24.6721 23.8876 25.9277 22.2461 25.9277 19.8732C25.9277 17.7733 24.3467 16.3053 22.0868 16.3053C19.4735 16.3053 17.9377 18.181 17.9377 20.1128C17.9377 20.8667 18.2405 21.6703 18.622 22.1114C18.6943 22.1955 18.706 22.2732 18.6834 22.3627C18.6541 22.4744 18.6124 22.6361 18.5707 22.7979C18.5081 23.0406 18.4455 23.2833 18.4249 23.357C18.386 23.5188 18.2911 23.5523 18.1167 23.4736C16.9677 22.9656 16.25 21.3638 16.25 20.0793Z" fill="white"/>
<path d="M13.5578 30.4516H13.0578V30.9516H13.5578V30.4516ZM30.4516 30.4516V30.9516H30.9516V30.4516H30.4516ZM26.8937 30.4516H26.3937V30.9516H26.8937V30.4516ZM22.9094 30.4516V30.9516H23.4094V30.4516H22.9094ZM19.3563 30.4516H18.8563V30.9516H19.3563V30.4516ZM22.8156 20.5609V21.0609H23.1176L23.2581 20.7937L22.8156 20.5609ZM17.1203 29.9516H13.5578V30.9516H17.1203V29.9516ZM14.0578 30.4516V18.9953H13.0578V30.4516H14.0578ZM15.3391 16.9344C14.4707 16.9344 13.7719 16.2341 13.7719 15.3719H12.7719C12.7719 16.7878 13.9199 17.9344 15.3391 17.9344V16.9344ZM13.7719 15.3719C13.7719 14.5097 14.4707 13.8094 15.3391 13.8094V12.8094C13.9199 12.8094 12.7719 13.9559 12.7719 15.3719H13.7719ZM30.4516 29.9516H26.8937V30.9516H30.4516V29.9516ZM27.3937 30.4516V24.8828H26.3937V30.4516H27.3937ZM27.3937 24.8828C27.3937 24.441 27.3921 23.9113 27.3113 23.4117L26.3241 23.5713C26.3901 23.9796 26.3937 24.4309 26.3937 24.8828H27.3937ZM25.6827 21.4146C25.4844 21.3682 25.2709 21.3453 25.0422 21.3453V22.3453C25.2044 22.3453 25.3406 22.3616 25.4551 22.3883L25.6827 21.4146ZM25.0422 21.3453C24.1935 21.3453 23.5553 21.6148 23.1206 22.1154C22.7042 22.5949 22.5322 23.222 22.4597 23.826L23.4526 23.9451C23.5152 23.4234 23.6506 23.0303 23.8756 22.7711C24.0824 22.533 24.4197 22.3453 25.0422 22.3453V21.3453ZM22.4094 25.27V30.4516H23.4094V25.27H22.4094ZM22.9094 29.9516H19.3563V30.9516H22.9094V29.9516ZM19.8563 30.4516V28.7444H18.8563V30.4516H19.8563ZM19.8563 23.7392V18.9953H18.8563V23.7392H19.8563ZM22.7687 21.0609H22.8156V20.0609H22.7687V21.0609ZM23.2581 20.7937C23.6163 20.1129 24.4823 19.3508 25.8026 19.2269L25.7092 18.2313C24.0386 18.3881 22.882 19.3607 22.3731 20.3282L23.2581 20.7937ZM27.7647 19.4258C28.6567 19.7141 29.1857 20.2767 29.5077 21.0622C29.8411 21.8755 29.9516 22.9299 29.9516 24.1656H30.9516C30.9516 22.897 30.8426 21.6821 30.433 20.6829C30.012 19.6559 29.2745 18.8628 28.0721 18.4743L27.7647 19.4258ZM29.9516 24.1656V30.4516H30.9516V24.1656H29.9516ZM28.0004 19.8325H29.0004L29.0004 19.8291L28.0004 19.8325ZM21.1214 24.2827L21.9962 23.7983L20.8072 21.651L20.1571 24.0178L21.1214 24.2827ZM20.5492 26.3708L21.5141 26.6332L21.5143 26.6327L20.5492 26.3708ZM19.0522 29.1902L19.8463 29.798L19.8478 29.7961L19.0522 29.1902ZM18.8787 29.1459L17.8933 29.3165L17.8949 29.3255L17.8966 29.3344L18.8787 29.1459ZM18.8118 25.9414L17.8408 25.7022L17.8407 25.7026L18.8118 25.9414ZM19.8902 21.5817L20.8609 21.822L20.9521 21.4536L20.7759 21.1174L19.8902 21.5817ZM22.0234 21.147L22.9746 21.4557H22.9746L22.0234 21.147ZM21.6782 22.3021L20.7073 22.0626L20.7065 22.0657L21.6782 22.3021ZM18.622 22.1114L19.3801 21.4593L19.3784 21.4573L18.622 22.1114ZM18.6834 22.3627L19.6508 22.6163L19.653 22.6075L18.6834 22.3627ZM18.5707 22.7979L17.6024 22.5481L17.6024 22.5481L18.5707 22.7979ZM18.4249 23.357L17.4618 23.0879L17.4568 23.1056L17.4526 23.1234L18.4249 23.357ZM18.1167 23.4736L18.5276 22.562L18.5211 22.5591L18.1167 23.4736ZM32.2234 9H11.7719V11H32.2234V9ZM35 11.7297C35 10.1952 33.7291 9 32.2234 9V11C32.6771 11 33 11.3517 33 11.7297H35ZM35 32.2703V11.7297H33V32.2703H35ZM32.2234 35C33.7309 35 35 33.7984 35 32.2703H33C33 32.6454 32.6753 33 32.2234 33V35ZM11.7719 35H32.2234V33H11.7719V35ZM9 32.2656C9 33.7932 10.2592 35 11.7719 35V33C11.3252 33 11 32.6505 11 32.2656H9ZM9 11.7297V32.2656H11V11.7297H9ZM11.7719 9C10.2627 9 9 10.1986 9 11.7297H11C11 11.3483 11.3217 11 11.7719 11V9ZM22.3218 13.7695C20.1198 13.7695 18.3415 14.4796 17.1071 15.6643C15.8769 16.8448 15.25 18.438 15.25 20.0793H17.25C17.25 18.9509 17.6771 17.8892 18.4919 17.1073C19.3024 16.3295 20.56 15.7695 22.3218 15.7695V13.7695ZM29.0004 19.8291C28.9882 16.2751 25.9495 13.7695 22.3218 13.7695V15.7695C25.0742 15.7695 26.9927 17.5975 27.0004 19.836L29.0004 19.8291ZM23.2294 26.2879C26.6892 26.2879 29.0004 23.2571 29.0004 19.8325H27.0004C27.0004 22.45 25.309 24.2879 23.2294 24.2879V26.2879ZM20.2465 24.7671C20.5278 25.275 21.0095 25.6477 21.4992 25.8881C22.0037 26.1357 22.6052 26.2879 23.2294 26.2879V24.2879C22.9224 24.2879 22.6213 24.2109 22.3803 24.0926C22.1245 23.9671 22.0178 23.8372 21.9962 23.7983L20.2465 24.7671ZM21.5143 26.6327C21.5699 26.4278 21.7125 25.9074 21.8417 25.4364C21.9062 25.2013 21.9672 24.979 22.012 24.8156C22.0345 24.7339 22.0529 24.6669 22.0657 24.6203C22.0721 24.597 22.0771 24.5788 22.0805 24.5664C22.0822 24.5603 22.0835 24.5555 22.0843 24.5524C22.0848 24.5508 22.0851 24.5496 22.0853 24.5488C22.0854 24.5484 22.0855 24.5481 22.0856 24.5478C22.0856 24.5477 22.0856 24.5477 22.0856 24.5476C22.0856 24.5476 22.0856 24.5476 22.0856 24.5476C22.0856 24.5476 22.0857 24.5475 21.1214 24.2827C20.1571 24.0178 20.1571 24.0178 20.1571 24.0178C20.1571 24.0178 20.1571 24.0178 20.1571 24.0179C20.1571 24.0179 20.157 24.018 20.157 24.0181C20.1569 24.0183 20.1569 24.0186 20.1568 24.019C20.1565 24.0198 20.1562 24.021 20.1558 24.0226C20.1549 24.0258 20.1536 24.0305 20.1519 24.0367C20.1485 24.0491 20.1435 24.0673 20.1371 24.0906C20.1243 24.1372 20.1059 24.2043 20.0834 24.2861C20.0385 24.4496 19.9775 24.672 19.9129 24.9073C19.7841 25.377 19.6406 25.9007 19.5841 26.1089L21.5143 26.6327ZM19.8478 29.7961C19.9208 29.7003 20.2393 29.2453 20.5793 28.6707C20.9116 28.1091 21.3227 27.3371 21.5141 26.6332L19.5842 26.1084C19.4674 26.538 19.1748 27.1169 18.858 27.6523C18.7063 27.9087 18.5605 28.1362 18.4477 28.3061C18.3913 28.3908 18.3439 28.4601 18.3089 28.5105C18.2704 28.5658 18.2539 28.588 18.2567 28.5843L19.8478 29.7961ZM17.8966 29.3344C17.9726 29.7303 18.2642 30.082 18.6956 30.1959C19.1406 30.3134 19.5862 30.1379 19.8463 29.798L18.2582 28.5824C18.4622 28.3158 18.8296 28.1628 19.2062 28.2622C19.5691 28.358 19.802 28.651 19.8608 28.9574L17.8966 29.3344ZM17.8407 25.7026C17.6579 26.4462 17.6801 27.3404 17.7306 27.9953C17.783 28.677 17.8772 29.2234 17.8933 29.3165L19.864 28.9753C19.8521 28.9066 19.77 28.4315 19.7247 27.8418C19.6772 27.2254 19.6801 26.5982 19.7829 26.1802L17.8407 25.7026ZM19.8902 21.5817C18.9195 21.3414 18.9195 21.3414 18.9195 21.3414C18.9195 21.3415 18.9195 21.3415 18.9195 21.3416C18.9194 21.3417 18.9194 21.3418 18.9193 21.3421C18.9192 21.3425 18.9191 21.3432 18.9188 21.3441C18.9184 21.3458 18.9177 21.3485 18.9169 21.352C18.9152 21.3589 18.9126 21.3693 18.9092 21.3828C18.9025 21.4099 18.8927 21.4497 18.8801 21.5006C18.8549 21.6024 18.8187 21.7486 18.7748 21.9261C18.6869 22.2813 18.5679 22.7619 18.4437 23.2641C18.1953 24.2679 17.9255 25.3585 17.8408 25.7022L19.7828 26.1806C19.8671 25.8382 20.1366 24.7489 20.3851 23.7445C20.5093 23.2424 20.6283 22.7618 20.7162 22.4067C20.7601 22.2291 20.7963 22.0829 20.8215 21.9811C20.8341 21.9302 20.8439 21.8905 20.8506 21.8634C20.854 21.8498 20.8566 21.8395 20.8583 21.8325C20.8591 21.829 20.8598 21.8264 20.8602 21.8246C20.8605 21.8237 20.8606 21.8231 20.8607 21.8226C20.8608 21.8224 20.8608 21.8222 20.8609 21.8221C20.8609 21.8221 20.8609 21.822 20.8609 21.822C20.8609 21.822 20.8609 21.822 19.8902 21.5817ZM18.6154 20.2809C18.6154 20.786 18.7045 21.2095 18.7953 21.5108C18.8408 21.6621 18.8876 21.7851 18.9254 21.8751C18.9444 21.9203 18.9612 21.9574 18.9748 21.9859C18.9815 22.0002 18.9875 22.0124 18.9925 22.0224C18.995 22.0274 18.9973 22.0319 18.9993 22.0358C19.0003 22.0378 19.0012 22.0396 19.0021 22.0413C19.0025 22.0421 19.0029 22.0429 19.0033 22.0437C19.0035 22.0441 19.0037 22.0445 19.0039 22.0448C19.004 22.045 19.0042 22.0453 19.0042 22.0454C19.0043 22.0456 19.0045 22.0459 19.8902 21.5817C20.7759 21.1174 20.776 21.1177 20.7762 21.118C20.7762 21.118 20.7764 21.1183 20.7764 21.1185C20.7766 21.1188 20.7768 21.1191 20.777 21.1195C20.7773 21.1201 20.7776 21.1207 20.7779 21.1213C20.7785 21.1225 20.7791 21.1235 20.7796 21.1245C20.7805 21.1264 20.7812 21.1278 20.7817 21.1288C20.7827 21.1307 20.7828 21.1309 20.782 21.1293C20.7805 21.1262 20.7759 21.1163 20.7691 21.1001C20.7554 21.0676 20.7334 21.0109 20.7103 20.9341C20.6636 20.7791 20.6154 20.5522 20.6154 20.2809H18.6154ZM21.2805 17.1485C19.6044 17.1485 18.6154 18.736 18.6154 20.2809H20.6154C20.6154 19.8687 20.7413 19.5612 20.887 19.3774C21.0296 19.1975 21.1728 19.1485 21.2805 19.1485V17.1485ZM23.4411 19.3824C23.4411 18.8664 23.2956 18.3069 22.9111 17.86C22.5082 17.3917 21.9289 17.1485 21.2805 17.1485V19.1485C21.3547 19.1485 21.3873 19.1614 21.3932 19.164C21.3969 19.1656 21.3973 19.1662 21.3961 19.1653C21.3949 19.1644 21.3944 19.1638 21.3949 19.1644C21.396 19.1656 21.4411 19.2231 21.4411 19.3824H23.4411ZM22.9746 21.4557C23.1685 20.8583 23.4411 20.0555 23.4411 19.3824H21.4411C21.4411 19.6644 21.3072 20.1144 21.0722 20.8383L22.9746 21.4557ZM22.6491 22.5417C22.7332 22.2009 22.8487 21.8434 22.9746 21.4557L21.0722 20.8383C20.9508 21.2125 20.8117 21.6397 20.7073 22.0626L22.6491 22.5417ZM23.0404 22.8876C22.8494 22.8876 22.737 22.8145 22.6888 22.7602C22.6648 22.7331 22.6513 22.706 22.6445 22.6786C22.638 22.6522 22.6331 22.6075 22.6499 22.5385L20.7065 22.0657C20.5223 22.8229 20.7209 23.5554 21.1925 24.0872C21.653 24.6064 22.3285 24.8876 23.0404 24.8876V22.8876ZM24.9277 19.8732C24.9277 22.0037 23.8541 22.8876 23.0404 22.8876V24.8876C25.49 24.8876 26.9277 22.4885 26.9277 19.8732H24.9277ZM22.0868 17.3053C22.9991 17.3053 23.7054 17.5992 24.1741 18.0345C24.6374 18.4649 24.9277 19.0863 24.9277 19.8732H26.9277C26.9277 18.5602 26.4274 17.3978 25.5352 16.5691C24.6485 15.7455 23.4343 15.3053 22.0868 15.3053V17.3053ZM18.9377 20.1128C18.9377 18.7336 20.0255 17.3053 22.0868 17.3053V15.3053C18.9215 15.3053 16.9377 17.6284 16.9377 20.1128H18.9377ZM19.3784 21.4573C19.1702 21.2166 18.9377 20.6524 18.9377 20.1128H16.9377C16.9377 21.0809 17.3108 22.124 17.8656 22.7655L19.3784 21.4573ZM19.653 22.6075C19.6917 22.4544 19.716 22.2494 19.6644 22.0178C19.6125 21.7847 19.5005 21.5993 19.3801 21.4593L17.8638 22.7635C17.8157 22.7075 17.7457 22.6031 17.7122 22.4522C17.6789 22.3028 17.6978 22.1815 17.7139 22.1178L19.653 22.6075ZM19.539 23.0477C19.5809 22.8851 19.6221 22.7256 19.6507 22.6163L17.7161 22.1091C17.6862 22.2232 17.6439 22.3872 17.6024 22.5481L19.539 23.0477ZM19.388 23.6261C19.4122 23.5397 19.4786 23.282 19.539 23.0477L17.6024 22.5481C17.5376 22.7992 17.4789 23.0268 17.4618 23.0879L19.388 23.6261ZM17.7057 24.3853C17.8465 24.4488 18.2318 24.6059 18.6704 24.4427C19.1822 24.2522 19.3467 23.8012 19.3972 23.5906L17.4526 23.1234C17.4643 23.0747 17.5618 22.7213 17.9728 22.5683C18.1504 22.5022 18.3034 22.51 18.3895 22.5237C18.4722 22.5368 18.5222 22.5595 18.5276 22.562L17.7057 24.3853ZM15.25 20.0793C15.25 20.892 15.4728 21.7703 15.8643 22.5271C16.2514 23.2756 16.8609 24.0118 17.7122 24.3882L18.5211 22.5591C18.2235 22.4275 17.8996 22.1088 17.6407 21.6082C17.3861 21.116 17.25 20.5511 17.25 20.0793H15.25Z" fill="white" mask="url(#path-3-inside-1_181_105)"/>
</g>
<defs>
<clipPath id="clip0_181_105">
<rect x="10" y="10" width="24" height="24" rx="5" fill="white"/>
</clipPath>
</defs>
</svg>
