<svg width="36" height="36" viewBox="0 0 36 36" fill="none" xmlns="http://www.w3.org/2000/svg">
<path d="M18.4484 35.9888C28.1419 35.9888 36 28.1307 36 18.4372C36 8.74373 28.1419 0.88559 18.4484 0.88559C8.75489 0.88559 0.896755 8.74373 0.896755 18.4372C0.896755 28.1307 8.75489 35.9888 18.4484 35.9888Z" fill="#FE3323"/>
<path d="M18.4525 32.4197C26.183 32.4197 32.4498 26.1529 32.4498 18.4224C32.4498 10.6919 26.183 4.42505 18.4525 4.42505C10.722 4.42505 4.45518 10.6919 4.45518 18.4224C4.45518 26.1529 10.722 32.4197 18.4525 32.4197Z" fill="white"/>
<path d="M10.0571 19.4225C10.2019 20.6453 11.3103 21.5193 12.5331 21.3749L16.498 20.9065L16.9594 24.867C17.1021 26.0915 18.2115 26.9676 19.4356 26.8225C20.6573 26.6777 21.5306 25.5706 21.3869 24.3488L20.9222 20.3966L24.8785 19.9289C26.1031 19.7841 26.9784 18.6739 26.8335 17.4493C26.6885 16.225 25.5786 15.3499 24.3543 15.4947L20.3973 15.9625L19.9356 11.9997C19.7931 10.7766 18.6847 9.90157 17.462 10.0468C16.2438 10.1915 15.3723 11.2945 15.5133 12.5131L15.9731 16.4874L12.0153 16.9453C10.7896 17.0871 9.91208 18.1972 10.0571 19.4225Z" fill="#FE3323"/>
</svg>
