<svg width="24" height="25" viewBox="0 0 24 25" fill="none" xmlns="http://www.w3.org/2000/svg">
<rect y="0.5" width="24" height="24" rx="4" fill="#FE3323"/>
<path d="M11.9989 8.57143C10.5652 8.57143 9.38665 9.23214 8.48291 10.0826C7.63634 10.8817 7.05143 11.8304 6.75239 12.5C7.05143 13.1696 7.63634 14.1183 8.48071 14.9174C9.38665 15.7679 10.5652 16.4286 11.9989 16.4286C13.4326 16.4286 14.6112 15.7679 15.5149 14.9174C16.3615 14.1183 16.9464 13.1696 17.2455 12.5C16.9464 11.8304 16.3615 10.8817 15.5171 10.0826C14.6112 9.23214 13.4326 8.57143 11.9989 8.57143ZM7.76387 9.29911C8.79955 8.32143 10.2222 7.5 11.9989 7.5C13.7756 7.5 15.1983 8.32143 16.234 9.29911C17.263 10.2701 17.9513 11.4286 18.2789 12.2254C18.3515 12.4018 18.3515 12.5982 18.2789 12.7746C17.9513 13.5714 17.263 14.7321 16.234 15.7009C15.1983 16.6786 13.7756 17.5 11.9989 17.5C10.2222 17.5 8.79955 16.6786 7.76387 15.7009C6.73479 14.7321 6.04654 13.5714 5.72111 12.7746C5.64855 12.5982 5.64855 12.4018 5.72111 12.2254C6.04654 11.4286 6.73479 10.2679 7.76387 9.29911ZM11.9989 14.2857C12.9708 14.2857 13.758 13.4866 13.758 12.5C13.758 11.5134 12.9708 10.7143 11.9989 10.7143C11.9835 10.7143 11.9703 10.7143 11.9549 10.7143C11.9835 10.8281 11.9989 10.9487 11.9989 11.0714C11.9989 11.8594 11.3678 12.5 10.5916 12.5C10.4707 12.5 10.352 12.4844 10.2398 12.4554C10.2398 12.471 10.2398 12.4844 10.2398 12.5C10.2398 13.4866 11.027 14.2857 11.9989 14.2857ZM11.9989 9.64286C12.7454 9.64286 13.4613 9.94388 13.9891 10.4797C14.517 11.0155 14.8135 11.7422 14.8135 12.5C14.8135 13.2578 14.517 13.9845 13.9891 14.5203C13.4613 15.0561 12.7454 15.3571 11.9989 15.3571C11.2525 15.3571 10.5366 15.0561 10.0087 14.5203C9.48089 13.9845 9.18435 13.2578 9.18435 12.5C9.18435 11.7422 9.48089 11.0155 10.0087 10.4797C10.5366 9.94388 11.2525 9.64286 11.9989 9.64286Z" fill="white"/>
</svg>
