<svg width="24" height="25" viewBox="0 0 24 25" fill="none" xmlns="http://www.w3.org/2000/svg">
<rect y="0.5" width="24" height="24" rx="4" fill="#FE3323"/>
<path d="M11.0578 8.4375H12.9402C12.9944 8.4375 13.0446 8.46289 13.0748 8.50781L13.4565 9.0625H10.5435L10.9252 8.50781C10.9554 8.46484 11.0056 8.4375 11.0598 8.4375H11.0578ZM14.6156 9.0625L13.8783 7.98633C13.6694 7.68359 13.3179 7.5 12.9422 7.5H11.0578C10.6821 7.5 10.3306 7.68359 10.1217 7.98633L9.38438 9.0625H9.10915H8.14286H7.98214C7.71496 9.0625 7.5 9.27148 7.5 9.53125C7.5 9.79102 7.71496 10 7.98214 10H8.21518L8.69732 16.3418C8.74754 16.9941 9.30603 17.5 9.97902 17.5H14.019C14.692 17.5 15.2504 16.9941 15.3007 16.3418L15.7848 10H16.0179C16.285 10 16.5 9.79102 16.5 9.53125C16.5 9.27148 16.285 9.0625 16.0179 9.0625H15.8571H14.8908H14.6156ZM14.8185 10L14.3404 16.2734C14.3283 16.4375 14.1877 16.5625 14.019 16.5625H9.97902C9.81027 16.5625 9.67165 16.4355 9.65759 16.2734L9.18147 10H14.8185Z" fill="white"/>
</svg>
