<svg width="24" height="25" viewBox="0 0 24 25" fill="none" xmlns="http://www.w3.org/2000/svg">
<rect y="0.5" width="24" height="24" rx="4" fill="#FE3323"/>
<path d="M7.51724 11.7857C7.2306 11.7857 7 11.5469 7 11.25V8.03571C7 7.73884 7.2306 7.5 7.51724 7.5C7.80388 7.5 8.03448 7.73884 8.03448 8.03571V9.82366L8.46552 9.29911C9.34914 8.20089 10.6832 7.5 12.1724 7.5C14.8384 7.5 17 9.73884 17 12.5C17 15.2612 14.8384 17.5 12.1724 17.5C11.0862 17.5 10.0819 17.1272 9.27586 16.5C9.04741 16.3214 9.00215 15.9866 9.17241 15.75C9.34267 15.5134 9.6681 15.4665 9.89655 15.6429C10.5302 16.1362 11.3168 16.4286 12.1724 16.4286C14.2672 16.4286 15.9655 14.6696 15.9655 12.5C15.9655 10.3304 14.2672 8.57143 12.1724 8.57143C11.0022 8.57143 9.95474 9.12054 9.25862 9.98661L9.25647 9.99107L8.66164 10.7143H10.6207C10.9073 10.7143 11.1379 10.9531 11.1379 11.25C11.1379 11.5469 10.9073 11.7857 10.6207 11.7857H7.51724Z" fill="white"/>
</svg>
