<svg width="24" height="25" viewBox="0 0 24 25" fill="none" xmlns="http://www.w3.org/2000/svg">
<rect y="0.5" width="24" height="24" rx="4" fill="#FE3323"/>
<path d="M16.4828 11.7857C16.7694 11.7857 17 11.5469 17 11.25V8.03571C17 7.73884 16.7694 7.5 16.4828 7.5C16.1961 7.5 15.9655 7.73884 15.9655 8.03571V9.82366L15.5345 9.29911C14.6509 8.20089 13.3168 7.5 11.8276 7.5C9.16164 7.5 7 9.73884 7 12.5C7 15.2612 9.16164 17.5 11.8276 17.5C12.9138 17.5 13.9181 17.1272 14.7241 16.5C14.9526 16.3214 14.9978 15.9866 14.8276 15.75C14.6573 15.5134 14.3319 15.4665 14.1034 15.6429C13.4698 16.1362 12.6832 16.4286 11.8276 16.4286C9.73276 16.4286 8.03448 14.6696 8.03448 12.5C8.03448 10.3304 9.73276 8.57143 11.8276 8.57143C12.9978 8.57143 14.0453 9.12054 14.7414 9.98661L14.7435 9.99107L15.3384 10.7143H13.3793C13.0927 10.7143 12.8621 10.9531 12.8621 11.25C12.8621 11.5469 13.0927 11.7857 13.3793 11.7857H16.4828Z" fill="white"/>
</svg>
