<svg width="16" height="17" viewBox="0 0 16 17" fill="none" xmlns="http://www.w3.org/2000/svg">
<path d="M15.1724 7.35714C15.631 7.35714 16 6.975 16 6.5V1.35714C16 0.882143 15.631 0.5 15.1724 0.5C14.7138 0.5 14.3448 0.882143 14.3448 1.35714V4.21786L13.6552 3.37857C12.2414 1.62143 10.1069 0.5 7.72414 0.5C3.45862 0.5 0 4.08214 0 8.5C0 12.9179 3.45862 16.5 7.72414 16.5C9.46207 16.5 11.069 15.9036 12.3586 14.9C12.7241 14.6143 12.7966 14.0786 12.5241 13.7C12.2517 13.3214 11.731 13.2464 11.3655 13.5286C10.3517 14.3179 9.0931 14.7857 7.72414 14.7857C4.37241 14.7857 1.65517 11.9714 1.65517 8.5C1.65517 5.02857 4.37241 2.21429 7.72414 2.21429C9.59655 2.21429 11.2724 3.09286 12.3862 4.47857L12.3897 4.48571L13.3414 5.64286H10.2069C9.74828 5.64286 9.37931 6.025 9.37931 6.5C9.37931 6.975 9.74828 7.35714 10.2069 7.35714H15.1724Z" fill="#FE3323"/>
</svg>
