<svg width="16" height="17" viewBox="0 0 16 17" fill="none" xmlns="http://www.w3.org/2000/svg">
<path d="M0.827586 7.35714C0.368965 7.35714 0 6.975 0 6.5V1.35714C0 0.882143 0.368965 0.5 0.827586 0.5C1.28621 0.5 1.65517 0.882143 1.65517 1.35714V4.21786L2.34483 3.37857C3.75862 1.62143 5.8931 0.5 8.27586 0.5C12.5414 0.5 16 4.08214 16 8.5C16 12.9179 12.5414 16.5 8.27586 16.5C6.53793 16.5 4.93104 15.9036 3.64138 14.9C3.27586 14.6143 3.20345 14.0786 3.47586 13.7C3.74828 13.3214 4.26897 13.2464 4.63448 13.5286C5.64828 14.3179 6.9069 14.7857 8.27586 14.7857C11.6276 14.7857 14.3448 11.9714 14.3448 8.5C14.3448 5.02857 11.6276 2.21429 8.27586 2.21429C6.40345 2.21429 4.72759 3.09286 3.61379 4.47857L3.61034 4.48571L2.65862 5.64286H5.7931C6.25172 5.64286 6.62069 6.025 6.62069 6.5C6.62069 6.975 6.25172 7.35714 5.7931 7.35714H0.827586Z" fill="white"/>
</svg>
