<svg width="13" height="13" viewBox="0 0 13 13" fill="none" xmlns="http://www.w3.org/2000/svg">
<g clip-path="url(#clip0_99_127)">
<path d="M12.966 4.98626C12.8804 4.72303 12.6469 4.53666 12.3718 4.51177L8.61908 4.17107L7.13598 0.698844C7.02648 0.443744 6.77734 0.279099 6.50002 0.279099C6.2227 0.279099 5.97345 0.443744 5.86465 0.698844L4.38155 4.17107L0.628238 4.51177C0.353102 4.53716 0.120119 4.72352 0.0340279 4.98626C-0.0515677 5.2495 0.0274818 5.53822 0.235569 5.72072L3.07232 8.20815L2.23591 11.892C2.17471 12.1629 2.27985 12.443 2.5046 12.6055C2.6254 12.6932 2.76733 12.7371 2.90976 12.7371C3.03216 12.7371 3.15465 12.7045 3.26405 12.6391L6.50002 10.7042L9.73539 12.6391C9.97274 12.7809 10.2712 12.7679 10.4954 12.6055C10.7202 12.443 10.8253 12.1629 10.7641 11.892L9.92771 8.20815L12.7645 5.72072C12.9725 5.53822 13.0516 5.25009 12.966 4.98626Z" fill="#FE3323"/>
</g>
<defs>
<clipPath id="clip0_99_127">
<rect width="13" height="13" fill="white"/>
</clipPath>
</defs>
</svg>
