<svg width="44" height="44" viewBox="0 0 44 44" fill="none" xmlns="http://www.w3.org/2000/svg">
<rect width="44" height="44" rx="8" fill="#FE3323"/>
<path d="M17.5502 31.2507H17.5499C15.6444 31.2517 13.7683 30.8485 12.0426 30.0765C14.0628 29.9103 15.9972 29.1551 17.6012 27.8952L18.7024 27.0302L17.3024 27.0021C16.3793 26.9835 15.485 26.6772 14.7443 26.126C14.2203 25.736 13.7917 25.2371 13.4857 24.6674C14.0114 24.681 14.5379 24.6176 15.0482 24.478L15.0149 23.5055C14.0133 23.3039 13.1123 22.7616 12.4653 21.9709C11.976 21.3729 11.6547 20.6607 11.5274 19.9072C12.0571 20.0963 12.6148 20.2025 13.1805 20.2205L14.9257 20.2759L13.4744 19.3051C12.5387 18.6792 11.8764 17.7205 11.6221 16.6239C11.423 15.7651 11.4858 14.8721 11.7937 14.0575C12.9796 15.3644 14.3959 16.4453 15.974 17.2449C17.7845 18.1621 19.7675 18.6887 21.7945 18.7904L22.4559 18.8236L22.3067 18.1784C22.0873 17.2298 22.1866 16.2353 22.5891 15.3488C22.9916 14.4622 23.675 13.7329 24.5336 13.2737C25.3921 12.8145 26.378 12.6509 27.3389 12.8082C28.2998 12.9655 29.182 13.435 29.8493 14.144L30.039 14.3455L30.3105 14.2918C30.9623 14.1629 31.599 13.972 32.2123 13.7225C31.8655 14.1934 31.4265 14.5951 30.9168 14.9006L31.2316 15.8261C31.6694 15.7753 32.1028 15.6962 32.5291 15.5896C32.1378 15.9962 31.7103 16.3679 31.2512 16.6999L31.0327 16.8579L31.0447 17.1273C31.0538 17.3307 31.0583 17.5389 31.0583 17.7426C31.0583 24.0324 26.271 31.2507 17.5502 31.2507ZM32.657 12.9754C31.883 13.3556 31.0616 13.6336 30.2134 13.8013L32.657 12.9754ZM32.0309 14.6795C31.7292 14.7459 31.4239 14.7971 31.1162 14.8328L31.1739 15.3295L31.431 15.7583C31.7324 15.5776 32.0137 15.3695 32.2718 15.1375C32.5643 15.0689 32.8536 14.9866 33.1386 14.8911L32.0309 14.6795ZM31.5583 17.7426C31.5583 17.5317 31.5536 17.316 31.5442 17.1051L17.5502 31.7507C26.6045 31.7507 31.5583 24.2474 31.5583 17.7426Z" fill="white" stroke="white"/>
</svg>
