<svg width="23" height="27" viewBox="0 0 23 27" fill="none" xmlns="http://www.w3.org/2000/svg">
<path d="M8.21429 19.6763H19.7143C20.1661 19.6763 20.5357 19.3107 20.5357 18.8638V7.48882H18.0714C17.1627 7.48882 16.4286 6.76265 16.4286 5.86382V3.42632H8.21429C7.7625 3.42632 7.39286 3.79195 7.39286 4.23882V18.8638C7.39286 19.3107 7.7625 19.6763 8.21429 19.6763ZM19.7143 22.1138H8.21429C6.40201 22.1138 4.92857 20.6564 4.92857 18.8638V4.23882C4.92857 2.44624 6.40201 0.988823 8.21429 0.988823H16.7109C17.5837 0.988823 18.4205 1.32906 19.0366 1.93843L22.04 4.90914C22.656 5.51851 23 6.34624 23 7.20953V18.8638C23 20.6564 21.5266 22.1138 19.7143 22.1138ZM1.23214 5.86382C1.91496 5.86382 2.46429 6.40718 2.46429 7.08257V20.0826C2.46429 22.5505 4.48705 24.5513 6.98214 24.5513H16.8393C17.5221 24.5513 18.0714 25.0947 18.0714 25.7701C18.0714 26.4455 17.5221 26.9888 16.8393 26.9888H6.98214C3.12656 26.9888 0 23.8962 0 20.0826V7.08257C0 6.40718 0.54933 5.86382 1.23214 5.86382Z" fill="white"/>
</svg>
